<svg width="346" height="271" viewBox="0 0 346 271" fill="none" xmlns="http://www.w3.org/2000/svg">
<path d="M0 35V56C0 58.2451 1.75202 60.1001 3.99348 60.2282L323.423 78.4781C335.678 79.1782 346 69.4292 346 57.1543C346 45.3583 336.437 35.7957 324.641 35.7957H214.664C208.528 35.7957 202.499 34.1824 197.183 31.1176L151.322 4.67813C146.006 1.6133 139.977 0 133.841 0H35C15.67 0 0 15.67 0 35Z" fill="url(#paint0_linear_1_10)"/>
<path d="M37 45H309V191C309 204.255 298.255 215 285 215H61C47.7452 215 37 204.255 37 191V45Z" fill="white"/>
<path d="M0 55H346V247C346 260.255 335.255 271 322 271H24C10.7452 271 0 260.255 0 247V55Z" fill="#6BA4FF"/>
<defs>
<linearGradient id="paint0_linear_1_10" x1="0" y1="40" x2="0" y2="223" gradientUnits="userSpaceOnUse">
<stop stop-color="#6BA4FF"/>
<stop offset="0.233365" stop-color="#416399"/>
</linearGradient>
</defs>
</svg>
