<svg width="381" height="271" viewBox="0 0 381 271" fill="none" xmlns="http://www.w3.org/2000/svg">
<path d="M17 35V56C17 58.2451 18.752 60.1001 20.9935 60.2282L340.423 78.4781C352.678 79.1782 363 69.4292 363 57.1543C363 45.3583 353.437 35.7957 341.641 35.7957H231.664C225.528 35.7957 219.499 34.1824 214.183 31.1176L168.322 4.67813C163.006 1.6133 156.977 0 150.841 0H52C32.67 0 17 15.67 17 35Z" fill="url(#paint0_linear_26_29)"/>
<path d="M54 40H326V186C326 199.255 315.255 210 302 210H78C64.7452 210 54 199.255 54 186V40Z" fill="white"/>
<path d="M0 55L381 55L364.834 248.993C363.797 261.432 353.399 271 340.917 271H39.1853C26.6608 271 16.242 261.369 15.2593 248.883L0 55Z" fill="#6BA4FF"/>
<defs>
<linearGradient id="paint0_linear_26_29" x1="17" y1="40" x2="17" y2="223" gradientUnits="userSpaceOnUse">
<stop stop-color="#6BA4FF"/>
<stop offset="0.233365" stop-color="#416399"/>
</linearGradient>
</defs>
</svg>
