<svg width="392" height="271" viewBox="0 0 392 271" fill="none" xmlns="http://www.w3.org/2000/svg">
<path d="M26 35V56V96.5C26 115.83 41.67 131.5 61 131.5H337C356.33 131.5 372 115.83 372 96.5V70.7957C372 51.4658 356.33 35.7957 337 35.7957H240.664C234.528 35.7957 228.499 34.1824 223.183 31.1176L177.322 4.67813C172.006 1.6133 165.977 0 159.841 0H61C41.67 0 26 15.67 26 35Z" fill="url(#paint0_linear_1_11)"/>
<path d="M48 55H351L337.898 172.656C336.545 184.808 326.272 194 314.045 194H88.5687C76.6173 194 66.4871 185.206 64.807 173.374L48 55Z" fill="#DAE8FF"/>
<path d="M0.5 91H392L374.372 249.65C373.022 261.805 362.748 271 350.519 271H46.8396C34.8854 271 24.7537 262.202 23.0769 250.366L0.5 91Z" fill="#6BA4FF"/>
<defs>
<linearGradient id="paint0_linear_1_11" x1="26" y1="40" x2="26" y2="223" gradientUnits="userSpaceOnUse">
<stop stop-color="#6BA4FF"/>
<stop offset="0.233365" stop-color="#416399"/>
</linearGradient>
</defs>
</svg>
